<?xml version="1.0" encoding="UTF-8"?>
<svg width="14px" height="20px" viewBox="0 0 14 20" version="1.1" xmlns="http://www.w3.org/2000/svg" xmlns:xlink="http://www.w3.org/1999/xlink">
    <!-- Generator: sketchtool 64 (101010) - https://sketch.com -->
    <title>49EA7634-9C36-43AD-8ED7-076196998DBC@1.00x</title>
    <desc>Created with sketchtool.</desc>
    <g id="Details_D" stroke="none" stroke-width="1" fill="none" fill-rule="evenodd">
        <g id="FAQ_03_Details_Default" transform="translate(-173.000000, -2557.000000)" fill-rule="nonzero">
            <g id="Article" transform="translate(130.000000, 413.000000)">
                <g id="Documents" transform="translate(40.000000, 2109.000000)">
                    <g id="Document-/-Desktop" transform="translate(0.000000, 35.000000)">
                        <g id="Icon-ZIP" transform="translate(3.000000, 0.000000)">
                            <g id="bg" transform="translate(0.333333, 0.000000)">
                                <polygon id="Rectangle-15" fill="#C22827" points="0 5.21457877e-15 8.66666667 0 13.3333333 4.66666667 13.3333333 20 0 20"></polygon>
                                <polygon id="Rectangle-16" fill="#680F11" points="8.66666667 0 13.3333333 4.66666667 8.66666667 4.66666667"></polygon>
                            </g>
                            <path d="M12.483216,12.3142785 C12.5638518,12.3947854 12.6384002,12.5126799 12.650384,12.608005 C12.6906063,12.9293161 12.6605511,13.2431367 12.5124106,13.4709464 C12.437161,13.5867565 12.3137212,13.672116 12.1672699,13.7117507 C12.0722916,13.7374139 11.9554174,13.7506363 11.8198344,13.7506363 C11.0562158,13.7506363 9.84635876,13.3575463 8.86266475,12.7915555 C7.57185309,12.9888495 6.09902112,13.3465386 4.80540478,13.7768857 C3.68498031,15.7749029 2.87164151,16.6666667 2.17106545,16.6666667 C2.04032695,16.6666667 1.91271191,16.6352717 1.79169434,16.5733282 L1.51271967,16.4298683 C1.33771112,16.3276389 1.31208611,16.1068963 1.34650775,15.934386 C1.45464908,15.3937653 2.10646114,14.7124854 3.09009145,14.1123638 C3.20604139,14.0406826 3.70037443,13.7735312 3.721378,13.7621978 L4.00981862,13.6063622 C4.28917576,13.1179472 4.59734507,12.5414043 4.93697195,11.8622414 L4.97894723,11.7781845 C5.30177762,11.1319799 5.66766694,10.3995038 5.95964534,9.67220606 L6.06402578,9.412936 C5.6562568,7.82110088 5.43124125,6.5920679 5.64930873,5.77051969 C5.72105235,5.50857915 5.99435383,5.33333333 6.32967799,5.33333333 L6.33452253,5.33333333 L6.51086969,5.33916292 C6.81158099,5.3258428 7.00338603,5.57013175 7.10120087,5.80067722 L7.13243532,5.88268223 C7.15790097,5.95791319 7.16596456,5.98598639 7.17906391,6.08277706 C7.27426525,6.78851517 6.91462282,8.87586509 6.91462282,8.87586509 C6.89747574,8.95376657 6.87905379,9.03010484 6.85741278,9.11696237 C7.18951789,10.0468627 7.72247966,10.8925109 8.36096925,11.5017515 C8.59835113,11.7284215 8.90068786,11.9166617 9.19406865,12.0896277 C9.84925908,11.9958984 10.4721633,11.9493268 10.9896991,11.9551565 C11.754242,11.9654153 12.2566706,12.0862081 12.483216,12.3142785 Z M2.03451495,16.1006107 C2.37898635,15.9413229 2.90260965,15.4334325 3.68452277,14.1591307 C3.57848499,14.2620765 3.46269441,14.372969 3.41568337,14.4119198 C2.66796879,15.0380303 2.16225748,15.7436706 2.03451495,16.1006107 Z M6.4632733,5.69157603 C6.35991275,5.69157603 6.36931497,6.51524112 6.36931497,6.51524112 C6.36931497,6.94614195 6.43111457,7.60514568 6.55898459,8.02324742 C6.71337204,7.74085453 6.83783177,7.35919578 6.82721843,6.81538337 C6.81657321,6.27160352 6.68848008,5.69157603 6.4632733,5.69157603 Z M5.12608843,13.0997419 C5.98771314,12.7613329 6.96633958,12.4829131 8.09862039,12.253996 C8.02133105,12.1937787 7.94773886,12.1333985 7.87829001,12.073344 C7.32148806,11.5917356 6.84783987,10.9906369 6.4675126,10.283596 C6.27628125,10.7888811 6.01952129,11.4036256 5.61296344,12.1892518 C5.44617783,12.5101721 5.28296188,12.8127895 5.12608843,13.0997419 Z M12.279862,13.060728 C12.3488008,13.0166642 12.3437332,12.8037378 11.9415099,12.698903 C11.5392867,12.594068 11.4174404,12.5958899 11.0061018,12.5958899 C10.7813732,12.5958899 10.5307645,12.6063786 10.257463,12.627059 C10.9687798,12.938665 11.4761804,13.1302597 11.886276,13.1302597 C12.0133492,13.1302597 12.2108912,13.1047919 12.279862,13.060728 Z" id="img" stroke="#FFFFFF" stroke-width="0.100000001" fill="#FFFFFF"></path>
                        </g>
                    </g>
                </g>
            </g>
        </g>
    </g>
</svg>